<?xml version="1.0" encoding="UTF-8"?>
<svg xmlns="http://www.w3.org/2000/svg" xmlns:xlink="http://www.w3.org/1999/xlink" viewBox="0 0 50 50" width="50px" height="50px">
<g id="surface281201856">
<path style=" stroke:none;fill-rule:nonzero;fill:rgb(92.54902%,94.117647%,94.509804%);fill-opacity:0.35;" d="M 5 4 C 3.347656 4 2 5.347656 2 7 L 2 13 L 48 13 L 48 11 C 48 9.347656 46.652344 8 45 8 L 18.042969 8.007812 C 17.765625 7.90625 17.1875 6.984375 16.878906 6.492188 C 16.113281 5.269531 15.316406 4 14 4 Z M 3 15 C 2.449219 15 2 15.449219 2 16 L 2 43 C 2 44.65625 3.34375 46 5 46 L 45 46 C 46.65625 46 48 44.65625 48 43 L 48 16 C 48 15.449219 47.550781 15 47 15 Z M 3 15 "/>
</g>
</svg>
